<?xml version="1.0" encoding="UTF-8" standalone="no"?><svg xmlns="http://www.w3.org/2000/svg" xmlns:xlink="http://www.w3.org/1999/xlink" contentScriptType="application/ecmascript" contentStyleType="text/css" height="452px" preserveAspectRatio="none" style="width:457px;height:452px;background:#FFFFFF;" version="1.1" viewBox="0 0 457 452" width="457px" zoomAndPan="magnify"><defs><filter height="300%" id="f9imicwegndh6" width="300%" x="-1" y="-1"><feGaussianBlur result="blurOut" stdDeviation="2.0"/><feColorMatrix in="blurOut" result="blurOut2" type="matrix" values="0 0 0 0 0 0 0 0 0 0 0 0 0 0 0 0 0 0 .4 0"/><feOffset dx="4.0" dy="4.0" in="blurOut2" result="blurOut3"/><feBlend in="SourceGraphic" in2="blurOut3" mode="normal"/></filter></defs><g><text fill="#000000" font-family="sans-serif" font-size="18" font-weight="bold" lengthAdjust="spacing" textLength="106" x="174.5" y="26.7219">Architecture</text><text fill="#000000" font-family="sans-serif" font-size="18" lengthAdjust="spacing" textLength="159" x="148" y="48.3218">Flow of connections</text><text fill="#000000" font-family="sans-serif" font-size="18" lengthAdjust="spacing" textLength="0" x="230" y="69.9216"/><ellipse cx="135" cy="84.7996" fill="#000000" filter="url(#f9imicwegndh6)" rx="10" ry="10" style="stroke:none;stroke-width:1.0;"/><path d="M189,111.3996 L189,127.9996 L169,131.9996 L189,135.9996 L189,152.5997 A0,0 0 0 0 189,152.5997 L388,152.5997 A0,0 0 0 0 388,152.5997 L388,121.3996 L378,111.3996 L189,111.3996 A0,0 0 0 0 189,111.3996 " fill="#FBFB77" filter="url(#f9imicwegndh6)" style="stroke:#A80036;stroke-width:1.0;"/><path d="M378,111.3996 L378,121.3996 L388,121.3996 L378,111.3996 " fill="#FBFB77" style="stroke:#A80036;stroke-width:1.0;"/><text fill="#000000" font-family="sans-serif" font-size="13" lengthAdjust="spacing" textLength="178" x="195" y="128.4766">Accepts incoming connections</text><text fill="#000000" font-family="sans-serif" font-size="13" lengthAdjust="spacing" textLength="99" x="195" y="144.0767">from it's listeners</text><rect fill="#FEFECE" filter="url(#f9imicwegndh6)" height="34.4001" rx="12.5" ry="12.5" style="stroke:#A80036;stroke-width:1.5;" width="68" x="101" y="114.7996"/><text fill="#000000" font-family="sans-serif" font-size="12" lengthAdjust="spacing" textLength="48" x="111" y="135.9477">Gateway</text><path d="M271,172.5997 L271,213.7997 L435,213.7997 L435,182.5997 L425,172.5997 L271,172.5997 " fill="#FBFB77" filter="url(#f9imicwegndh6)" style="stroke:#A80036;stroke-width:1.0;"/><path d="M425,172.5997 L425,182.5997 L435,182.5997 L425,172.5997 " fill="#FBFB77" style="stroke:#A80036;stroke-width:1.0;"/><text fill="#000000" font-family="sans-serif" font-size="13" lengthAdjust="spacing" textLength="143" x="277" y="189.6767">Validates and processes</text><text fill="#000000" font-family="sans-serif" font-size="13" lengthAdjust="spacing" textLength="92" x="277" y="205.2767">the connections</text><path d="M275,233.7997 L275,274.9997 L431,274.9997 L431,243.7997 L421,233.7997 L275,233.7997 " fill="#FBFB77" filter="url(#f9imicwegndh6)" style="stroke:#A80036;stroke-width:1.0;"/><path d="M421,233.7997 L421,243.7997 L431,243.7997 L421,233.7997 " fill="#FBFB77" style="stroke:#A80036;stroke-width:1.0;"/><text fill="#000000" font-family="sans-serif" font-size="13" lengthAdjust="spacing" textLength="97" x="281" y="250.8767">These nodes are</text><text fill="#000000" font-family="sans-serif" font-size="13" lengthAdjust="spacing" textLength="135" x="281" y="266.4767">managed in a CPNPool</text><rect fill="#000000" filter="url(#f9imicwegndh6)" height="6" rx="2.5" ry="2.5" style="stroke:#000000;stroke-width:1.0;" width="250" x="11" y="180.5996"/><rect fill="#FEFECE" filter="url(#f9imicwegndh6)" height="34.4001" rx="12.5" ry="12.5" style="stroke:#A80036;stroke-width:1.5;" width="56" x="23" y="206.5996"/><text fill="#000000" font-family="sans-serif" font-size="12" lengthAdjust="spacing" textLength="36" x="33" y="227.7477">CPN 1</text><rect fill="#FEFECE" filter="url(#f9imicwegndh6)" height="34.4001" rx="12.5" ry="12.5" style="stroke:#A80036;stroke-width:1.5;" width="56" x="107" y="206.5996"/><text fill="#000000" font-family="sans-serif" font-size="12" lengthAdjust="spacing" textLength="36" x="117" y="227.7477">CPN 2</text><rect fill="#FEFECE" filter="url(#f9imicwegndh6)" height="34.4001" rx="12.5" ry="12.5" style="stroke:#A80036;stroke-width:1.5;" width="56" x="191" y="206.5996"/><text fill="#000000" font-family="sans-serif" font-size="12" lengthAdjust="spacing" textLength="36" x="201" y="227.7477">CPN n</text><rect fill="#000000" filter="url(#f9imicwegndh6)" height="6" rx="2.5" ry="2.5" style="stroke:#000000;stroke-width:1.0;" width="250" x="11" y="260.9997"/><path d="M207,309.3998 L207,318.1998 L187,322.1998 L207,326.1998 L207,334.9998 A0,0 0 0 0 207,334.9998 L380,334.9998 A0,0 0 0 0 380,334.9998 L380,319.3998 L370,309.3998 L207,309.3998 A0,0 0 0 0 207,309.3998 " fill="#FBFB77" filter="url(#f9imicwegndh6)" style="stroke:#A80036;stroke-width:1.0;"/><path d="M370,309.3998 L370,319.3998 L380,319.3998 L370,309.3998 " fill="#FBFB77" style="stroke:#A80036;stroke-width:1.0;"/><text fill="#000000" font-family="sans-serif" font-size="13" lengthAdjust="spacing" textLength="152" x="213" y="326.4768">Reverse proxy component</text><rect fill="#FEFECE" filter="url(#f9imicwegndh6)" height="34.4001" rx="12.5" ry="12.5" style="stroke:#A80036;stroke-width:1.5;" width="104" x="83" y="304.9997"/><text fill="#000000" font-family="sans-serif" font-size="12" lengthAdjust="spacing" textLength="84" x="93" y="326.1478">ServerGateway</text><rect fill="#FEFECE" filter="url(#f9imicwegndh6)" height="34.4001" rx="12.5" ry="12.5" style="stroke:#A80036;stroke-width:1.5;" width="75" x="97.5" y="359.3998"/><text fill="#000000" font-family="sans-serif" font-size="12" lengthAdjust="spacing" textLength="55" x="107.5" y="380.5479">ConnPool</text><ellipse cx="135" cy="424.7999" fill="#FFFFFF" filter="url(#f9imicwegndh6)" rx="11" ry="11" style="stroke:#000000;stroke-width:1.0;"/><ellipse cx="135" cy="424.7999" fill="#000000" rx="6" ry="6" style="stroke:#7F7F7F;stroke-width:1.0;"/><line style="stroke:#A80036;stroke-width:1.5;" x1="135" x2="135" y1="94.7996" y2="114.7996"/><polygon fill="#A80036" points="131,104.7996,135,114.7996,139,104.7996,135,108.7996" style="stroke:#A80036;stroke-width:1.0;"/><line style="stroke:#A80036;stroke-width:1.5;" x1="51" x2="51" y1="186.5996" y2="206.5996"/><polygon fill="#A80036" points="47,196.5996,51,206.5996,55,196.5996,51,200.5996" style="stroke:#A80036;stroke-width:1.0;"/><line style="stroke:#A80036;stroke-width:1.5;" x1="135" x2="135" y1="186.5996" y2="206.5996"/><polygon fill="#A80036" points="131,196.5996,135,206.5996,139,196.5996,135,200.5996" style="stroke:#A80036;stroke-width:1.0;"/><line style="stroke:#A80036;stroke-width:1.5;" x1="219" x2="219" y1="186.5996" y2="206.5996"/><polygon fill="#A80036" points="215,196.5996,219,206.5996,223,196.5996,219,200.5996" style="stroke:#A80036;stroke-width:1.0;"/><line style="stroke:#A80036;stroke-width:1.5;" x1="51" x2="51" y1="240.9997" y2="260.9997"/><polygon fill="#A80036" points="47,250.9997,51,260.9997,55,250.9997,51,254.9997" style="stroke:#A80036;stroke-width:1.0;"/><line style="stroke:#A80036;stroke-width:1.5;" x1="135" x2="135" y1="240.9997" y2="260.9997"/><polygon fill="#A80036" points="131,250.9997,135,260.9997,139,250.9997,135,254.9997" style="stroke:#A80036;stroke-width:1.0;"/><line style="stroke:#A80036;stroke-width:1.5;" x1="219" x2="219" y1="240.9997" y2="260.9997"/><polygon fill="#A80036" points="215,250.9997,219,260.9997,223,250.9997,219,254.9997" style="stroke:#A80036;stroke-width:1.0;"/><line style="stroke:#A80036;stroke-width:1.5;" x1="135" x2="135" y1="149.1997" y2="180.5996"/><polygon fill="#A80036" points="131,170.5996,135,180.5996,139,170.5996,135,174.5996" style="stroke:#A80036;stroke-width:1.0;"/><line style="stroke:#A80036;stroke-width:1.5;" x1="135" x2="135" y1="266.9997" y2="304.9997"/><polygon fill="#A80036" points="131,294.9997,135,304.9997,139,294.9997,135,298.9997" style="stroke:#A80036;stroke-width:1.0;"/><line style="stroke:#A80036;stroke-width:1.5;" x1="135" x2="135" y1="339.3998" y2="359.3998"/><polygon fill="#A80036" points="131,349.3998,135,359.3998,139,349.3998,135,353.3998" style="stroke:#A80036;stroke-width:1.0;"/><line style="stroke:#A80036;stroke-width:1.5;" x1="135" x2="135" y1="393.7999" y2="413.7999"/><polygon fill="#A80036" points="131,403.7999,135,413.7999,139,403.7999,135,407.7999" style="stroke:#A80036;stroke-width:1.0;"/><!--MD5=[763be2eb99cd973107cfb9cc9f0ff206]
@startuml architecture
title <b>Architecture</b>\nFlow of connections\n
start
:Gateway;
note right: Accepts incoming connections\nfrom it's listeners
fork
  :CPN 1;
fork again
  :CPN 2;
fork again
  :CPN n;
end fork
note right: Validates and processes\nthe connections
note right: These nodes are\nmanaged in a CPNPool
:ServerGateway;
note right: Reverse proxy component
:ConnPool;
stop
@enduml

PlantUML version 1.2021.16(Wed Dec 08 18:25:22 CET 2021)
(GPL source distribution)
Java Runtime: OpenJDK Runtime Environment
JVM: OpenJDK 64-Bit Server VM
Default Encoding: UTF-8
Language: en
Country: US
--></g></svg>