<?xml version="1.0" encoding="UTF-8" standalone="no"?><svg xmlns="http://www.w3.org/2000/svg" xmlns:xlink="http://www.w3.org/1999/xlink" contentStyleType="text/css" height="475px" preserveAspectRatio="none" style="width:450px;height:475px;background:#FFFFFF;" version="1.1" viewBox="0 0 450 475" width="450px" zoomAndPan="magnify"><defs/><g><rect fill="none" height="67.2038" id="_title" style="stroke:none;stroke-width:1.0;" width="149" x="149" y="15"/><text fill="#000000" font-family="sans-serif" font-size="14" font-weight="bold" lengthAdjust="spacing" textLength="86" x="180.5" y="34.9659">Architecture</text><text fill="#000000" font-family="sans-serif" font-size="14" font-weight="bold" lengthAdjust="spacing" textLength="139" x="154" y="54.0339">Flow of connections</text><text fill="#000000" font-family="sans-serif" font-size="14" font-weight="bold" lengthAdjust="spacing" textLength="4" x="221.5" y="73.1018"> </text><ellipse cx="132" cy="98.2038" fill="#222222" rx="10" ry="10" style="stroke:#222222;stroke-width:1.0;"/><path d="M186.5,123.6698 L186.5,142.3758 L166.5,146.3758 L186.5,150.3758 L186.5,169.0818 A0,0 0 0 0 186.5,169.0818 L388.5,169.0818 A0,0 0 0 0 388.5,169.0818 L388.5,133.6698 L378.5,123.6698 L186.5,123.6698 A0,0 0 0 0 186.5,123.6698 " fill="#FEFFDD" style="stroke:#181818;stroke-width:0.5;"/><path d="M378.5,123.6698 L378.5,133.6698 L388.5,133.6698 L378.5,123.6698 " fill="#FEFFDD" style="stroke:#181818;stroke-width:0.5;"/><text fill="#000000" font-family="sans-serif" font-size="13" lengthAdjust="spacing" textLength="181" x="192.5" y="142.5668">Accepts incoming connections</text><text fill="#000000" font-family="sans-serif" font-size="13" lengthAdjust="spacing" textLength="102" x="192.5" y="160.2728">from it's listeners</text><rect fill="#F1F1F1" height="36.3441" rx="12.5" ry="12.5" style="stroke:#181818;stroke-width:0.5;" width="69" x="97.5" y="128.2038"/><text fill="#000000" font-family="sans-serif" font-size="12" lengthAdjust="spacing" textLength="49" x="107.5" y="151.0318">Gateway</text><path d="M265,189.0818 L265,234.4939 L428,234.4939 L428,199.0818 L418,189.0818 L265,189.0818 " fill="#FEFFDD" style="stroke:#181818;stroke-width:0.5;"/><path d="M418,189.0818 L418,199.0818 L428,199.0818 L418,189.0818 " fill="#FEFFDD" style="stroke:#181818;stroke-width:0.5;"/><text fill="#000000" font-family="sans-serif" font-size="13" lengthAdjust="spacing" textLength="142" x="271" y="207.9788">Validates and processes</text><text fill="#000000" font-family="sans-serif" font-size="13" lengthAdjust="spacing" textLength="96" x="271" y="225.6849">the connections</text><path d="M267.5,254.4939 L267.5,299.9059 L425.5,299.9059 L425.5,264.4939 L415.5,254.4939 L267.5,254.4939 " fill="#FEFFDD" style="stroke:#181818;stroke-width:0.5;"/><path d="M415.5,254.4939 L415.5,264.4939 L425.5,264.4939 L415.5,254.4939 " fill="#FEFFDD" style="stroke:#181818;stroke-width:0.5;"/><text fill="#000000" font-family="sans-serif" font-size="13" lengthAdjust="spacing" textLength="97" x="273.5" y="273.3909">These nodes are</text><text fill="#000000" font-family="sans-serif" font-size="13" lengthAdjust="spacing" textLength="137" x="273.5" y="291.0969">managed in a CPNPool</text><rect fill="#555555" height="6" rx="2.5" ry="2.5" style="stroke:#555555;stroke-width:1.0;" width="244" x="11" y="200.3218"/><rect fill="#F1F1F1" height="36.3441" rx="12.5" ry="12.5" style="stroke:#181818;stroke-width:0.5;" width="54" x="23" y="226.3218"/><text fill="#000000" font-family="sans-serif" font-size="12" lengthAdjust="spacing" textLength="34" x="33" y="249.1499">CPN 1</text><rect fill="#F1F1F1" height="36.3441" rx="12.5" ry="12.5" style="stroke:#181818;stroke-width:0.5;" width="54" x="105" y="226.3218"/><text fill="#000000" font-family="sans-serif" font-size="12" lengthAdjust="spacing" textLength="34" x="115" y="249.1499">CPN 2</text><rect fill="#F1F1F1" height="36.3441" rx="12.5" ry="12.5" style="stroke:#181818;stroke-width:0.5;" width="54" x="187" y="226.3218"/><text fill="#000000" font-family="sans-serif" font-size="12" lengthAdjust="spacing" textLength="34" x="197" y="249.1499">CPN n</text><rect fill="#555555" height="6" rx="2.5" ry="2.5" style="stroke:#555555;stroke-width:1.0;" width="244" x="11" y="282.6659"/><path d="M205,334.2249 L205,344.0779 L185,348.0779 L205,352.0779 L205,361.931 A0,0 0 0 0 205,361.931 L384,361.931 A0,0 0 0 0 384,361.931 L384,344.2249 L374,334.2249 L205,334.2249 A0,0 0 0 0 205,334.2249 " fill="#FEFFDD" style="stroke:#181818;stroke-width:0.5;"/><path d="M374,334.2249 L374,344.2249 L384,344.2249 L374,334.2249 " fill="#FEFFDD" style="stroke:#181818;stroke-width:0.5;"/><text fill="#000000" font-family="sans-serif" font-size="13" lengthAdjust="spacing" textLength="158" x="211" y="353.122">Reverse proxy component</text><rect fill="#F1F1F1" height="36.3441" rx="12.5" ry="12.5" style="stroke:#181818;stroke-width:0.5;" width="106" x="79" y="329.9059"/><text fill="#000000" font-family="sans-serif" font-size="12" lengthAdjust="spacing" textLength="86" x="89" y="352.734">ServerGateway</text><rect fill="#F1F1F1" height="36.3441" rx="12.5" ry="12.5" style="stroke:#181818;stroke-width:0.5;" width="73" x="95.5" y="386.25"/><text fill="#000000" font-family="sans-serif" font-size="12" lengthAdjust="spacing" textLength="53" x="105.5" y="409.0781">ConnPool</text><ellipse cx="132" cy="453.5941" fill="none" rx="11" ry="11" style="stroke:#222222;stroke-width:1.0;"/><ellipse cx="132" cy="453.5941" fill="#222222" rx="6" ry="6" style="stroke:#111111;stroke-width:1.0;"/><line style="stroke:#181818;stroke-width:1.0;" x1="132" x2="132" y1="108.2038" y2="128.2038"/><polygon fill="#181818" points="128,118.2038,132,128.2038,136,118.2038,132,122.2038" style="stroke:#181818;stroke-width:1.0;"/><line style="stroke:#181818;stroke-width:1.0;" x1="50" x2="50" y1="206.3218" y2="226.3218"/><polygon fill="#181818" points="46,216.3218,50,226.3218,54,216.3218,50,220.3218" style="stroke:#181818;stroke-width:1.0;"/><line style="stroke:#181818;stroke-width:1.0;" x1="132" x2="132" y1="206.3218" y2="226.3218"/><polygon fill="#181818" points="128,216.3218,132,226.3218,136,216.3218,132,220.3218" style="stroke:#181818;stroke-width:1.0;"/><line style="stroke:#181818;stroke-width:1.0;" x1="214" x2="214" y1="206.3218" y2="226.3218"/><polygon fill="#181818" points="210,216.3218,214,226.3218,218,216.3218,214,220.3218" style="stroke:#181818;stroke-width:1.0;"/><line style="stroke:#181818;stroke-width:1.0;" x1="50" x2="50" y1="262.6659" y2="282.6659"/><polygon fill="#181818" points="46,272.6659,50,282.6659,54,272.6659,50,276.6659" style="stroke:#181818;stroke-width:1.0;"/><line style="stroke:#181818;stroke-width:1.0;" x1="132" x2="132" y1="262.6659" y2="282.6659"/><polygon fill="#181818" points="128,272.6659,132,282.6659,136,272.6659,132,276.6659" style="stroke:#181818;stroke-width:1.0;"/><line style="stroke:#181818;stroke-width:1.0;" x1="214" x2="214" y1="262.6659" y2="282.6659"/><polygon fill="#181818" points="210,272.6659,214,282.6659,218,272.6659,214,276.6659" style="stroke:#181818;stroke-width:1.0;"/><line style="stroke:#181818;stroke-width:1.0;" x1="132" x2="132" y1="164.5479" y2="200.3218"/><polygon fill="#181818" points="128,190.3218,132,200.3218,136,190.3218,132,194.3218" style="stroke:#181818;stroke-width:1.0;"/><line style="stroke:#181818;stroke-width:1.0;" x1="132" x2="132" y1="288.6659" y2="329.9059"/><polygon fill="#181818" points="128,319.9059,132,329.9059,136,319.9059,132,323.9059" style="stroke:#181818;stroke-width:1.0;"/><line style="stroke:#181818;stroke-width:1.0;" x1="132" x2="132" y1="366.25" y2="386.25"/><polygon fill="#181818" points="128,376.25,132,386.25,136,376.25,132,380.25" style="stroke:#181818;stroke-width:1.0;"/><line style="stroke:#181818;stroke-width:1.0;" x1="132" x2="132" y1="422.5941" y2="442.5941"/><polygon fill="#181818" points="128,432.5941,132,442.5941,136,432.5941,132,436.5941" style="stroke:#181818;stroke-width:1.0;"/><!--MD5=[5241eeb34d794b5e37b1a7e4fd49ccf5]
@startuml architecture
title <b>Architecture</b>\nFlow of connections\n
start
:Gateway;
note right: Accepts incoming connections\nfrom it's listeners
fork
  :CPN 1;
fork again
  :CPN 2;
fork again
  :CPN n;
end fork
note right: Validates and processes\nthe connections
note right: These nodes are\nmanaged in a CPNPool
:ServerGateway;
note right: Reverse proxy component
:ConnPool;
stop
@enduml

PlantUML version 1.2022.7(Mon Aug 22 19:01:30 CEST 2022)
(GPL source distribution)
Java Runtime: OpenJDK Runtime Environment
JVM: OpenJDK 64-Bit Server VM
Default Encoding: UTF-8
Language: en
Country: US
--></g></svg>